<svg width="215" height="60" viewBox="0 0 215 60" fill="none" xmlns="http://www.w3.org/2000/svg">
<g filter="url(#filter0_d_124_215)">
<path d="M24.65 0.0699997C29.0367 0.0699997 32.28 1.02667 34.38 2.94C36.5267 4.85333 37.6 7.35 37.6 10.43C37.6 13.0433 36.8767 15.05 35.43 16.45C33.9833 17.8033 31.9067 18.48 29.2 18.48C28.36 18.48 27.8233 18.41 27.59 18.27C27.3567 18.0833 27.24 17.7333 27.24 17.22C27.24 16.7533 27.1933 16.1467 27.1 15.4C27.0533 14.6533 26.89 13.93 26.61 13.23C26.33 12.53 25.8867 11.9467 25.28 11.48C24.6733 10.9667 23.8333 10.71 22.76 10.71C21.2667 10.71 19.9367 11.1767 18.77 12.11C17.6033 12.9967 17.02 14.1633 17.02 15.61C17.02 16.87 17.4867 17.8967 18.42 18.69C19.4 19.4833 20.6133 20.23 22.06 20.93C23.5067 21.5833 25.07 22.26 26.75 22.96C28.4767 23.66 30.0633 24.5933 31.51 25.76C32.9567 26.88 34.1467 28.3033 35.08 30.03C36.06 31.71 36.55 33.8567 36.55 36.47C36.55 38.5233 36.2 40.46 35.5 42.28C34.8467 44.0533 33.8433 45.6167 32.49 46.97C31.1833 48.2767 29.5033 49.3033 27.45 50.05C25.4433 50.7967 23.0867 51.17 20.38 51.17C18.0467 51.17 15.8767 50.9133 13.87 50.4C11.91 49.8867 10.1833 49.2567 8.69 48.51C7.24333 47.7167 6.1 46.8767 5.26 45.99C4.42 45.0567 4 44.2167 4 43.47C4 40.39 4.16333 38.1733 4.49 36.82C4.86333 35.4667 5.51667 34.79 6.45 34.79C7.10333 34.79 7.78 35.07 8.48 35.63C9.22667 36.19 10.0667 36.82 11 37.52C11.9333 38.22 13.0067 38.85 14.22 39.41C15.48 39.97 16.9267 40.25 18.56 40.25C19.2133 40.25 19.8433 40.2033 20.45 40.11C21.1033 39.97 21.6633 39.76 22.13 39.48C22.6433 39.2 23.04 38.8267 23.32 38.36C23.6467 37.8933 23.81 37.3333 23.81 36.68C23.81 35.5133 23.3667 34.58 22.48 33.88C21.5933 33.18 20.4733 32.55 19.12 31.99C17.7667 31.3833 16.2967 30.7767 14.71 30.17C13.17 29.5167 11.7233 28.6533 10.37 27.58C9.01667 26.46 7.89667 25.0367 7.01 23.31C6.12333 21.5833 5.68 19.3667 5.68 16.66C5.68 13.6267 6.24 11.06 7.36 8.96C8.52667 6.86 9.99667 5.15667 11.77 3.85C13.59 2.49667 15.62 1.54 17.86 0.98C20.1467 0.373332 22.41 0.0699997 24.65 0.0699997Z" fill="white"/>
<path d="M65.7253 10.57L63.0653 49.42C63.0187 50.12 62.762 50.47 62.2953 50.47H58.4454C55.832 50.47 53.9654 49.9567 52.8454 48.93C51.7254 47.9033 51.1654 46.4333 51.1654 44.52C51.1654 43.82 51.1887 42.77 51.2354 41.37C51.3287 39.97 51.4453 38.3367 51.5854 36.47C51.7254 34.5567 51.8653 32.5033 52.0053 30.31C52.192 28.07 52.3787 25.83 52.5653 23.59C52.752 21.3033 52.9154 19.04 53.0554 16.8C53.242 14.56 53.4053 12.4833 53.5453 10.57H42.3453C41.832 10.57 41.5753 10.2433 41.5753 9.59L41.7853 5.67C41.832 5.06333 41.9253 4.48 42.0653 3.92C42.252 3.31333 42.532 2.77667 42.9053 2.31C43.2787 1.84333 43.7454 1.47 44.3054 1.19C44.912 0.909998 45.6353 0.769999 46.4753 0.769999H77.7654C78.0453 0.769999 78.302 0.839999 78.5354 0.98C78.7687 1.12 78.8854 1.37666 78.8854 1.75L78.6053 5.88C78.512 7.28 78.1154 8.42333 77.4154 9.31C76.762 10.15 75.3853 10.57 73.2853 10.57H65.7253Z" fill="white"/>
<path d="M104.377 0C107.784 0 110.7 0.489999 113.127 1.47C115.554 2.40333 117.537 3.80333 119.077 5.67C120.617 7.49 121.737 9.73 122.437 12.39C123.137 15.0033 123.487 17.99 123.487 21.35C123.487 23.2167 123.347 25.2467 123.067 27.44C122.834 29.6333 122.367 31.85 121.667 34.09C121.014 36.2833 120.104 38.4067 118.937 40.46C117.77 42.5133 116.254 44.3333 114.387 45.92C112.567 47.5067 110.374 48.79 107.807 49.77C105.24 50.7033 102.207 51.17 98.7069 51.17C94.8336 51.17 91.6136 50.5867 89.0469 49.42C86.5269 48.2533 84.4969 46.69 82.9569 44.73C81.4636 42.7233 80.3903 40.3667 79.7369 37.66C79.1303 34.9533 78.827 32.06 78.827 28.98C78.827 25.34 79.2469 21.7933 80.0869 18.34C80.9269 14.84 82.3269 11.7367 84.2869 9.03C86.2936 6.32333 88.9303 4.15333 92.1969 2.52C95.4636 0.839999 99.5236 0 104.377 0ZM102.907 10.85C101.274 10.85 99.8503 11.1533 98.6369 11.76C97.4703 12.32 96.4669 13.09 95.6269 14.07C94.8336 15.05 94.1803 16.1467 93.6669 17.36C93.2003 18.5733 92.827 19.8333 92.547 21.14C92.267 22.4 92.0803 23.6367 91.9869 24.85C91.8936 26.0167 91.8469 27.0667 91.8469 28C91.8469 32.2467 92.5469 35.35 93.9469 37.31C95.3936 39.27 97.4236 40.25 100.037 40.25C102.184 40.25 103.934 39.5733 105.287 38.22C106.64 36.82 107.69 35.1633 108.437 33.25C109.23 31.29 109.767 29.2833 110.047 27.23C110.327 25.13 110.467 23.3567 110.467 21.91C110.467 18.5033 109.884 15.82 108.717 13.86C107.55 11.8533 105.614 10.85 102.907 10.85Z" fill="white"/>
<path d="M136.417 50.47C133.757 50.47 131.867 49.9567 130.747 48.93C129.673 47.8567 129.137 46.2933 129.137 44.24C129.137 43.68 129.16 42.7467 129.207 41.44C129.3 40.0867 129.417 38.5 129.557 36.68C129.697 34.86 129.837 32.8767 129.977 30.73C130.164 28.5367 130.35 26.32 130.537 24.08C130.91 19.3667 131.167 15.54 131.307 12.6C131.494 9.66 131.634 7.35 131.727 5.67C131.867 3.57 132.007 2.24 132.147 1.68C132.287 1.07333 132.59 0.769999 133.057 0.769999C134.504 0.769999 135.973 0.746665 137.467 0.699999C139.007 0.606664 140.477 0.51333 141.877 0.419998C143.277 0.326666 144.583 0.256666 145.797 0.209997C147.057 0.116665 148.177 0.0699997 149.157 0.0699997C152.143 0.0699997 154.71 0.443331 156.857 1.19C159.004 1.93666 160.73 2.98667 162.037 4.34C163.39 5.69333 164.37 7.32666 164.977 9.24C165.63 11.1533 165.957 13.3 165.957 15.68C165.957 19.32 165.234 22.5633 163.787 25.41C162.34 28.2567 160.03 30.4267 156.857 31.92L162.737 40.32C163.81 41.9067 164.627 43.1433 165.187 44.03C165.747 44.87 166.027 45.5 166.027 45.92C166.027 46.2467 165.817 46.7133 165.397 47.32C165.024 47.88 164.44 48.4633 163.647 49.07C162.9 49.63 161.967 50.12 160.847 50.54C159.774 50.96 158.56 51.17 157.207 51.17C155.713 51.17 154.407 50.68 153.287 49.7C152.214 48.72 151.234 47.4367 150.347 45.85C149.507 44.2167 148.76 42.35 148.107 40.25C147.5 38.15 146.917 35.9567 146.357 33.67C144.677 33.5767 143.3 33.4133 142.227 33.18C142.087 35.2333 141.947 37.1933 141.807 39.06C141.667 40.9267 141.55 42.6067 141.457 44.1C141.363 45.5467 141.27 46.76 141.177 47.74C141.084 48.6733 141.037 49.2333 141.037 49.42C140.99 49.7933 140.897 50.0733 140.757 50.26C140.617 50.4 140.337 50.47 139.917 50.47H136.417ZM147.757 10.57C147.197 10.57 146.567 10.6167 145.867 10.71C145.167 10.7567 144.42 10.8267 143.627 10.92C143.533 12.5533 143.417 14.5133 143.277 16.8C143.184 19.04 143.043 21.4433 142.857 24.01C144.49 24.3833 145.913 24.57 147.127 24.57C148.573 24.57 149.74 24.29 150.627 23.73C151.56 23.17 152.283 22.4933 152.797 21.7C153.31 20.86 153.637 19.9733 153.777 19.04C153.964 18.1067 154.057 17.2667 154.057 16.52C154.057 14.6067 153.59 13.1367 152.657 12.11C151.723 11.0833 150.09 10.57 147.757 10.57Z" fill="white"/>
<path d="M210.404 45.92C210.404 46.2933 210.171 46.7833 209.704 47.39C209.284 47.95 208.678 48.51 207.884 49.07C207.138 49.63 206.251 50.12 205.224 50.54C204.244 50.96 203.194 51.17 202.074 51.17C200.348 51.17 198.831 50.6333 197.524 49.56C196.218 48.44 195.028 46.9233 193.954 45.01C192.928 43.0967 191.971 40.8333 191.084 38.22C190.198 35.56 189.288 32.69 188.354 29.61L185.694 31.36L184.364 49.42C184.318 49.7933 184.224 50.0733 184.084 50.26C183.944 50.4 183.664 50.47 183.244 50.47H179.394C176.734 50.47 174.844 49.9567 173.724 48.93C172.651 47.8567 172.114 46.2933 172.114 44.24C172.114 43.5867 172.138 42.6067 172.184 41.3C172.278 39.9467 172.394 38.3833 172.534 36.61C172.674 34.79 172.814 32.8067 172.954 30.66C173.141 28.5133 173.328 26.32 173.514 24.08C173.841 19.6 174.098 16.0533 174.284 13.44C174.518 10.8267 174.681 8.77333 174.774 7.28C174.868 5.74 174.938 4.62 174.984 3.92C175.031 3.17333 175.054 2.47333 175.054 1.82C175.054 1.12 175.428 0.769999 176.174 0.769999H180.024C181.518 0.769999 182.708 0.933332 183.594 1.26C184.528 1.54 185.251 1.96 185.764 2.52C186.278 3.08 186.628 3.78 186.814 4.62C187.001 5.41333 187.094 6.34667 187.094 7.42C187.094 8.49333 187.024 10.2433 186.884 12.67C186.791 15.05 186.628 17.7333 186.394 20.72C187.981 18.76 189.871 16.3333 192.064 13.44C194.304 10.5467 197.011 6.97667 200.184 2.73C200.324 2.54333 200.511 2.31 200.744 2.03C201.024 1.70333 201.304 1.4 201.584 1.12C201.911 0.84 202.238 0.606665 202.564 0.419998C202.938 0.186665 203.288 0.0699997 203.614 0.0699997C204.221 0.0699997 204.921 0.396666 205.714 1.05C206.508 1.65667 207.254 2.42667 207.954 3.36C208.654 4.24667 209.238 5.18 209.704 6.16C210.218 7.09333 210.474 7.88667 210.474 8.54C210.474 9.89333 209.261 11.9233 206.834 14.63C204.408 17.29 200.931 20.37 196.404 23.87C197.198 25.2233 198.108 26.6933 199.134 28.28C200.161 29.82 201.188 31.4067 202.214 33.04C203.241 34.6267 204.244 36.19 205.224 37.73C206.204 39.2233 207.068 40.5767 207.814 41.79C208.608 42.9567 209.238 43.9133 209.704 44.66C210.171 45.4067 210.404 45.8267 210.404 45.92Z" fill="white"/>
</g>
<defs>
<filter id="filter0_d_124_215" x="0" y="0" width="214.474" height="59.1699" filterUnits="userSpaceOnUse" color-interpolation-filters="sRGB">
<feFlood flood-opacity="0" result="BackgroundImageFix"/>
<feColorMatrix in="SourceAlpha" type="matrix" values="0 0 0 0 0 0 0 0 0 0 0 0 0 0 0 0 0 0 127 0" result="hardAlpha"/>
<feOffset dy="4"/>
<feGaussianBlur stdDeviation="2"/>
<feComposite in2="hardAlpha" operator="out"/>
<feColorMatrix type="matrix" values="0 0 0 0 0 0 0 0 0 0 0 0 0 0 0 0 0 0 0.25 0"/>
<feBlend mode="normal" in2="BackgroundImageFix" result="effect1_dropShadow_124_215"/>
<feBlend mode="normal" in="SourceGraphic" in2="effect1_dropShadow_124_215" result="shape"/>
</filter>
</defs>
</svg>
